<svg width="20" height="20" viewBox="0 0 20 20" fill="none" xmlns="http://www.w3.org/2000/svg">
<g clip-path="url(#clip0_3237_1130)">
<path d="M8.79116 19.9333C7.42871 19.7683 5.94211 19.253 4.78275 18.5438C3.47508 17.7439 2.24939 16.5183 1.44949 15.2106C0.694701 13.9767 0.183092 12.4392 0.0349236 10.9595C-0.0358485 10.2527 0.00503387 9.00799 0.12063 8.35C0.302468 7.31495 0.567097 6.49909 1.02183 5.57157C1.99346 3.58975 3.59172 1.9915 5.57353 1.01987C6.93481 0.352476 8.16684 0.0481236 9.68165 0.00502892C11.4627 -0.0456394 12.9756 0.285187 14.5073 1.06022C17.8841 2.76897 20 6.2024 20 9.9733C20 13.855 17.8287 17.3198 14.3325 19.0169C13.747 19.3011 12.7441 19.6479 12.1219 19.7813C11.1388 19.992 9.78636 20.0537 8.79116 19.9333ZM11.0979 19.5224C12.3501 19.3863 13.7516 18.9198 14.8371 18.2778C15.0421 18.1566 15.2042 18.0519 15.1975 18.0452C15.1907 18.0385 15.0374 18.0612 14.8566 18.0958C14.144 18.2322 12.9836 18.2184 12.3486 18.0661C11.8301 17.9417 11.4454 17.6522 11.0914 17.1202C10.781 16.6537 10.5767 16.166 10.4011 15.4722C10.3215 15.1576 10.2459 14.8672 10.233 14.8268C10.1788 14.656 9.74091 14.5936 9.56964 14.7322C9.49818 14.7901 9.43894 14.9496 9.33443 15.3654C8.95004 16.895 8.26182 17.8521 7.3965 18.0604C7.06252 18.1408 5.96864 18.177 5.40255 18.1263C5.14394 18.1032 4.92573 18.0903 4.91763 18.0977C4.89025 18.1226 5.26647 18.3409 5.76324 18.5884C7.4333 19.4203 9.19658 19.729 11.0979 19.5224ZM7.02468 17.7763C7.78827 17.6502 8.45116 16.954 8.79624 15.9159C8.96971 15.394 9.04265 14.8644 8.97488 14.619C8.86582 14.2241 8.42585 13.9175 7.66518 13.7064C7.36638 13.6235 7.2194 13.6121 6.42843 13.6108C5.3955 13.6091 4.99643 13.6698 4.5049 13.9036C4.1332 14.0804 3.89155 14.2875 3.76775 14.5354C3.49734 15.0769 3.54825 16.4688 3.86105 17.0861C4.1041 17.5657 4.39781 17.7508 5.01846 17.8155C5.45979 17.8615 6.64941 17.8382 7.02468 17.7763ZM14.7962 17.7983C15.4075 17.7601 15.8341 17.3566 16.0048 16.6554C16.095 16.2845 16.1359 15.1725 16.0707 14.8609C15.9737 14.3976 15.5166 13.9718 14.9108 13.7804C14.2507 13.5718 12.9058 13.5292 12.1135 13.6917C11.4662 13.8244 10.8724 14.186 10.7645 14.5132C10.688 14.7448 10.7381 15.342 10.8714 15.7876C11.1595 16.7514 11.6531 17.4149 12.292 17.6975C12.5872 17.8281 13.6406 17.8705 14.7962 17.7983ZM17.6731 15.7171C18.701 14.3361 19.341 12.7055 19.5312 10.9835C19.6051 10.3144 19.5641 9.01166 19.4491 8.37137C18.8385 4.97324 16.5157 2.1798 13.3199 1.00021C12.3026 0.624725 11.4449 0.464308 10.2836 0.432296C9.09598 0.399557 8.25471 0.507412 7.19703 0.828009C4.06691 1.77679 1.59221 4.32903 0.741697 7.48559C0.498398 8.38856 0.446543 8.82455 0.445693 9.97431C0.445004 10.9086 0.457421 11.1125 0.544435 11.5961C0.766848 12.8322 1.20919 13.9923 1.85795 15.0411C2.11746 15.4607 2.68453 16.2117 2.71715 16.1791C2.72881 16.1674 2.65819 15.786 2.56024 15.3316C2.23126 13.8053 1.91809 12.2009 1.85409 11.714C1.81916 11.4483 1.79059 10.918 1.79059 10.5356V9.84031L2.00211 9.36782C2.11844 9.10795 2.26693 8.74077 2.33208 8.55186L2.45053 8.2084L2.79379 8.19327C3.14763 8.17768 3.54314 8.03791 3.54314 7.92846C3.54314 7.90064 3.47971 7.84371 3.40217 7.80196C3.32464 7.7602 3.17557 7.64932 3.0709 7.55555L2.88059 7.38506L3.23731 7.41283C3.5853 7.43992 3.59291 7.43849 3.54805 7.35466C3.47889 7.22544 3.12325 6.92445 2.8699 6.78072C2.74648 6.7107 2.64549 6.64284 2.64549 6.62993C2.64549 6.5698 3.21639 6.67139 3.53368 6.78799C3.72832 6.85952 3.93465 6.91804 3.99221 6.91804C4.12413 6.91804 4.20433 6.79422 4.26656 6.49448C4.46047 5.56048 5.25435 4.88743 6.81314 4.33549C7.9089 3.94751 8.10942 3.85831 9.48471 3.14719C10.2664 2.74298 10.5774 2.61063 10.6276 2.66081C10.6418 2.675 10.613 2.72982 10.5635 2.78262C10.3761 2.98287 10.1037 3.6357 10.0529 4.00654L10.026 4.20234L10.2363 4.02552C10.4614 3.83612 11.0028 3.28395 11.3397 2.9L11.546 2.6649L11.5196 2.91008C11.4858 3.22312 11.3929 3.49527 11.229 3.76176C11.1575 3.87789 11.1062 3.98009 11.115 3.98886C11.1238 3.99764 11.4482 3.71641 11.836 3.36391C12.2237 3.0114 12.6899 2.60995 12.8719 2.47178C13.2374 2.19435 13.8085 1.89687 14.0922 1.83618L14.2755 1.79695L13.9618 2.1254C13.5113 2.59686 13.2071 3.07037 13.2045 3.30407C13.2037 3.37462 13.2283 3.36419 13.3638 3.23664C13.6575 2.96014 14.1198 2.64786 14.1664 2.69446C14.1743 2.70243 14.0757 2.8433 13.9472 3.00751C13.5651 3.49593 13.2091 4.31339 13.3804 4.30915C13.4124 4.30835 13.5961 4.17852 13.7886 4.02062C14.1915 3.69009 14.7409 3.33655 15.0924 3.18159L15.3356 3.07437L15.151 3.33983C14.9031 3.69635 14.7325 4.04593 14.5978 4.47309C14.4226 5.02866 14.4366 5.04777 14.787 4.73175C15.1558 4.3992 15.4342 4.17605 15.4547 4.19655C15.4631 4.20498 15.4306 4.301 15.3825 4.40991C15.3006 4.595 15.2993 4.61649 15.3628 4.73927C15.4002 4.81151 15.6331 5.08276 15.8804 5.34205C16.4051 5.89212 16.5517 6.10674 16.6718 6.50127C16.7202 6.65997 16.7833 6.7898 16.812 6.7898C16.8408 6.7898 16.9399 6.73263 17.0323 6.66276C17.1246 6.59288 17.2135 6.53518 17.2297 6.53452C17.2459 6.53391 17.1826 6.74799 17.089 7.01034C16.9794 7.31757 16.9336 7.50206 16.9602 7.52869C16.9868 7.55532 17.0749 7.52897 17.2077 7.45476C17.4379 7.32608 18.0607 7.04627 18.1169 7.04627C18.1369 7.04627 18.0466 7.20497 17.9162 7.39892C17.6666 7.77025 17.5093 8.08646 17.4588 8.31794C17.4258 8.46918 17.4555 8.48741 17.5805 8.39276C17.6928 8.30776 17.7345 8.34828 17.7345 8.54235C17.7345 8.71884 17.7966 8.79655 17.875 8.71816C17.9012 8.692 17.938 8.67059 17.9568 8.67059C18.0306 8.67059 17.9714 10.6247 17.8625 11.7821C17.8398 12.024 17.733 12.6203 17.6252 13.1072C17.5174 13.594 17.3071 14.5886 17.1577 15.3175L16.8861 16.6425L17.1261 16.3861C17.2581 16.245 17.5042 15.944 17.6731 15.7171ZM10.9389 13.6951C11.8665 13.3059 12.1163 13.2655 13.5882 13.2665C14.8215 13.2674 15.1327 13.2998 15.8307 13.5C16.0365 13.5591 16.1419 13.5717 16.1726 13.541C16.2006 13.513 16.2171 13.1539 16.2171 12.569C16.2171 11.7349 16.207 11.6026 16.1171 11.2567C15.9164 10.4838 15.4364 9.67306 14.9285 9.24918C14.6069 8.98072 14.1006 8.69605 13.7116 8.56496C13.2054 8.39441 12.4071 8.36871 11.5643 8.49582C10.6037 8.64069 8.54241 8.61315 7.88177 8.44662C7.74695 8.41264 7.36702 8.39275 6.85276 8.39275H6.03748L5.6652 8.57717C4.56062 9.12436 3.97284 10.2354 3.65238 12.3817C3.52793 13.2152 3.51553 13.4929 3.60125 13.5258C3.63321 13.538 3.85922 13.4972 4.1035 13.435C4.92596 13.2255 7.23754 13.2001 7.9603 13.3925C8.09753 13.429 8.3572 13.5285 8.53736 13.6136C9.07892 13.8695 9.05978 13.8663 9.89317 13.8377C10.6009 13.8134 10.684 13.8021 10.9389 13.6951Z" fill="black"/>
</g>
<defs>
<clipPath id="clip0_3237_1130">
<rect width="20" height="19.9943" fill="white"/>
</clipPath>
</defs>
</svg>
